<svg width="34" height="34" viewBox="0 0 34 34" fill="none" xmlns="http://www.w3.org/2000/svg">
<path d="M20.4711 4.27259C22.6528 2.09087 23.7437 1 25.0993 1C26.4548 1 27.5457 2.09087 29.7274 4.27259C31.9091 6.45432 33 7.54519 33 8.90074C33 10.2563 31.9091 11.3472 29.7274 13.5289M13.5289 29.7274C11.3472 31.9091 10.2563 33 8.90074 33C7.54519 33 6.45433 31.9091 4.2726 29.7274C2.09087 27.5457 1 26.4548 1 25.0993C1 23.7437 2.09087 22.6528 4.2726 20.4711" stroke="white" stroke-width="2" stroke-linecap="round" stroke-linejoin="round"/>
<path d="M7.74371 17L4.2726 13.5289C2.09087 11.3472 1 10.2563 1 8.90074C1 7.54519 2.09087 6.45432 4.2726 4.27259C6.45433 2.09086 7.54519 1 8.90074 1C10.2563 1 11.3472 2.09086 13.5289 4.27259L17 7.74371M7.74371 17L17 7.74371M7.74371 17L17 26.2563M17 7.74371L26.2563 17M26.2563 17L29.7274 20.4711C31.9091 22.6528 33 23.7437 33 25.0993C33 26.4548 31.9091 27.5457 29.7274 29.7274C27.5457 31.9091 26.4548 33 25.0993 33C23.7437 33 22.6528 31.9091 20.4711 29.7274L17 26.2563M26.2563 17L17 26.2563" stroke="white" stroke-width="2" stroke-linecap="round" stroke-linejoin="round"/>
</svg>
