<svg width="52" height="52" viewBox="0 0 48 48" fill="none" xmlns="http://www.w3.org/2000/svg">
<path d="M27 10.7V5" stroke="white" stroke-width="2" stroke-linecap="round" stroke-linejoin="round"/>
<path d="M32.7 5H17.5C13.0217 5 10.7825 5 9.39124 6.39124C8 7.78249 8 10.0217 8 14.5V43" stroke="white" stroke-width="2" stroke-linecap="round" stroke-linejoin="round"/>
<path d="M15.6 22.3377C15.6 17.6679 15.6 15.3329 16.6979 13.6557C17.1731 12.9295 17.7839 12.3061 18.4951 11.8209C20.1382 10.7002 22.4255 10.7002 27 10.7002C31.5745 10.7002 33.8618 10.7002 35.5049 11.8209C36.2162 12.3061 36.8269 12.9295 37.3022 13.6557C38.4 15.3329 38.4 17.6679 38.4 22.3377V25.6627C38.4 30.3325 38.4 32.6675 37.3022 34.3447C36.8269 35.0709 36.2162 35.6943 35.5049 36.1795C33.8618 37.3002 31.5745 37.3002 27 37.3002C22.4255 37.3002 20.1382 37.3002 18.4951 36.1795C17.7839 35.6943 17.1731 35.0709 16.6979 34.3447C15.6 32.6675 15.6 30.3325 15.6 25.6627V22.3377Z" stroke="white" stroke-width="2" stroke-linejoin="round"/>
<path d="M15.6 20.9071C28.6286 13.0611 26.1857 25.9085 38.4 20.9071" stroke="white" stroke-width="2" stroke-linecap="round"/>
<path d="M21.3 42.9998C24.448 42.9998 27 40.4478 27 37.2998" stroke="white" stroke-width="2" stroke-linecap="round" stroke-linejoin="round"/>
</svg>