<svg width="34" height="34" viewBox="0 0 34 34" fill="none" xmlns="http://www.w3.org/2000/svg">
<path d="M25 1C25 1.81578 25 2.22367 25.1083 2.60377C25.1679 2.81258 25.2512 3.01383 25.3568 3.20356C25.5489 3.54895 25.8374 3.83737 26.4142 4.41421L29.5858 7.58579C30.1626 8.16263 30.4511 8.45105 30.7964 8.64321C30.9862 8.74877 31.1874 8.83214 31.3962 8.89165C31.7763 9 32.1842 9 33 9" stroke="white" stroke-width="2" stroke-linecap="round" stroke-linejoin="round"/>
<path d="M16.5089 9L8.62439 16.8845C6.92076 18.5882 6.06895 19.44 5.86591 20.4607C5.77801 20.9026 5.77801 21.3575 5.86591 21.7994C6.06895 22.8202 6.92076 23.672 8.62439 25.3756C10.328 27.0792 11.1798 27.931 12.2006 28.1341C12.6425 28.222 13.0974 28.222 13.5393 28.1341C14.56 27.931 15.4118 27.0792 17.1154 25.3756L25 17.4911" stroke="white" stroke-width="2" stroke-linecap="round" stroke-linejoin="round"/>
<path d="M15.4 7.3999L26.6 18.5999" stroke="white" stroke-width="2" stroke-linecap="round" stroke-linejoin="round"/>
<path d="M10.6 27.6194L8.72887 28.9559C7.9758 29.4938 7.59927 29.7628 7.18634 29.7953C7.02621 29.8079 6.86508 29.7946 6.7092 29.7558C6.30724 29.6558 5.98004 29.3287 5.32565 28.6743C4.67126 28.0199 4.34407 27.6927 4.24411 27.2907C4.20534 27.1348 4.19201 26.9737 4.20462 26.8136C4.23714 26.4006 4.50609 26.0241 5.04399 25.271L6.38052 23.3999" stroke="white" stroke-width="2" stroke-linecap="round" stroke-linejoin="round"/>
<path d="M19.4 10.6002L27.4 4.2002M23.4 14.6002L29.8 6.6002" stroke="white" stroke-width="2" stroke-linejoin="round"/>
<path d="M5 29L1 33" stroke="white" stroke-width="2" stroke-linecap="round" stroke-linejoin="round"/>
</svg>
