<svg width="30" height="30" viewBox="0 0 30 30" fill="none" xmlns="http://www.w3.org/2000/svg">
<path d="M19.34 7.00651C20.1577 7.00651 20.942 7.33136 21.5202 7.9096C22.0985 8.48783 22.4233 9.27209 22.4233 10.0898M19.34 0.839844C21.7932 0.839844 24.146 1.81439 25.8807 3.54911C27.6154 5.28382 28.59 7.63659 28.59 10.0898M3.92333 2.38151H10.09L13.1733 10.0898L9.31916 12.4023C10.9702 15.7501 13.6797 18.4596 17.0275 20.1107L19.34 16.2565L27.0483 19.3398V25.5065C27.0483 26.3243 26.7235 27.1085 26.1452 27.6868C25.567 28.265 24.7827 28.5898 23.965 28.5898C17.9514 28.2244 12.2794 25.6707 8.01927 21.4106C3.75915 17.1504 1.20545 11.4785 0.839996 5.46484C0.839996 4.64709 1.16485 3.86283 1.74308 3.2846C2.32132 2.70636 3.10558 2.38151 3.92333 2.38151Z" stroke="white" stroke-width="2.5" stroke-linecap="round" stroke-linejoin="round"/>
</svg>
