<svg width="26" height="42" viewBox="0 0 26 42" fill="none" xmlns="http://www.w3.org/2000/svg">
<path d="M7.13689 1H18.8631C20.7057 1 21.627 1 22.1994 1.58579C23.2669 2.67814 23.2669 7.32186 22.1994 8.41421C21.627 9 20.7057 9 18.8631 9H7.13689C5.29429 9 4.373 9 3.80057 8.41421C2.73314 7.32186 2.73314 2.67814 3.80057 1.58579C4.373 1 5.29429 1 7.13689 1Z" stroke="white" stroke-width="2"/>
<path d="M5 9C5.32986 9.65972 5.49481 9.98963 5.61213 10.3114C6.22422 11.9903 6.05611 13.8546 5.15356 15.397C4.98058 15.6926 4.75929 15.9876 4.31672 16.5777L3.50986 17.6535C2.60972 18.8537 2.15965 19.4538 1.83348 20.1112C1.50399 20.7754 1.26842 21.4821 1.13353 22.2111C1 22.9328 1 23.6829 1 25.1831V29C1 34.6569 1 37.4853 2.75736 39.2426C4.51472 41 7.34315 41 13 41C18.6569 41 21.4853 41 23.2426 39.2426C25 37.4853 25 34.6569 25 29V25.1831C25 23.6829 25 22.9328 24.8665 22.2111C24.7316 21.4821 24.496 20.7754 24.1665 20.1112C23.8403 19.4538 23.3903 18.8537 22.4901 17.6535L21.6833 16.5777C21.2407 15.9876 21.0194 15.6926 20.8464 15.397C19.9439 13.8546 19.7758 11.9903 20.3879 10.3114C20.5052 9.98962 20.6701 9.65975 21 9" stroke="white" stroke-width="2"/>
<path d="M13 23V33M8 28L18 28" stroke="white" stroke-width="2" stroke-linecap="round"/>
</svg>
